<?xml version="1.0" encoding="utf-8"?>
<!-- Generator: Adobe Illustrator 16.0.0, SVG Export Plug-In . SVG Version: 6.00 Build 0)  -->
<!DOCTYPE svg PUBLIC "-//W3C//DTD SVG 1.1//EN" "http://www.w3.org/Graphics/SVG/1.1/DTD/svg11.dtd">
<svg version="1.1" xmlns="http://www.w3.org/2000/svg" xmlns:xlink="http://www.w3.org/1999/xlink" 
	 viewBox="147.57 93.007 312.353 390.779"
>
<g id="Layer_2" display="none">
	<rect x="148.25" y="90.929" display="inline" fill="#182028" width="311.672" height="389.285"/>
</g>
<g id="Layer_1">
	<g>
		<g>
			<polygon fill="currentColor" stroke="CURRENTCOLOR" stroke-width="16" stroke-miterlimit="10" points="169.058,386.324 269.508,420.434 
				169.058,454.883 169.058,469.208 290.314,426.118 290.314,414.862 169.058,371.886 			"/>
			<polygon fill="CURRENTCOLOR" stroke="CURRENTCOLOR" stroke-width="16" stroke-miterlimit="10" points="437.451,372.112 319.266,415.09 
				319.266,426.346 437.451,469.436 437.451,454.77 339.219,420.888 437.451,386.779 			"/>
		</g>
		<path fill="CURRENTCOLOR" d="M317.113,355.988c-2.283,2.127-4.777,4.146-7.406,6.088c3.33,1.771,11.938,5.369,12.771,5.639
			c18.041,5.795,39.932,7.885,60.438,1.82c11.248-3.33,21.973-9.23,29.594-17.922c9.396-10.729,13.25-23.73,13.762-36.049
			c0.345-8.47-2.957-16.037-6.356-23.313c-4.83-10.361-10.443-20.338-15.893-30.384c-8.488-15.665-17.902-31.87-23.609-49.18
			l-1.58-4.5c-0.008-0.017-6.115-22.826-6.457-24.779c-0.416-2.364-0.816-4.733-1.221-7.096c-0.883-3.599-2.135-11.26-2.176-11.447
			c0.004,0.014,0.025,0.024,0.061,0.033c-1.072-8.77-0.838-17.705,1.293-26.783c0.146-0.626-2.924-0.313-3.146-0.266
			c-14.607,3.079-26.805,10.881-34.553,23.81c-2.217,3.694-3.922,7.63-5.195,11.708c-0.297,0.193-0.602,0.383-0.895,0.579
			c-0.521-9.184-1.062-19.337-1.18-21.977c-0.418-9.56-4.252-18.683-9.609-26.516c-18.481-27.011-84.792-33.299-84.688-32.358
			c7.521,3.347,14.011,8.485,17.627,16.381c4.878,10.639,3.262,23.253,0.553,34.223c-7.649,30.97-25.931,59.356-42.146,86.423
			c-7.67,12.799-15.513,25.522-22.547,38.687c-4.943,9.25-9.831,18.855-10.784,29.43c-1.381,15.388,0.858,31.486,9.646,44.494
			c6.091,9.008,15.031,15.357,25.007,19.314c10.121,5.287,57.899,25.578,97.174-37.854c5.154-6.766,9.389-14.334,11.988-22.729
			c2.859,2.891,5.381,5.98,6.938,9.354c1.676,3.633,2.209,7.326,2.639,11.172c0.525,4.698,1.553,9.54,1.086,14.317
			C327.56,343.322,323.437,350.098,317.113,355.988z"/>
	</g>
</g>
</svg>
